<?xml version="1.0" encoding="utf-8"?>
<!-- Generator: Adobe Illustrator 16.0.0, SVG Export Plug-In . SVG Version: 6.00 Build 0)  -->
<!DOCTYPE svg PUBLIC "-//W3C//DTD SVG 1.1//EN" "http://www.w3.org/Graphics/SVG/1.1/DTD/svg11.dtd">
<svg version="1.1" id="粗实线层" xmlns="http://www.w3.org/2000/svg" xmlns:xlink="http://www.w3.org/1999/xlink" x="0px"
	 y="0px" width="1860px" height="1512px" viewBox="0 0 1860 1512" enable-background="new 0 0 1860 1512" xml:space="preserve">
<path fill="#F58FB2" d="M640.297,1022.291V809.693c0-39.139-31.728-70.867-70.865-70.867c-39.139,0-70.867,31.728-70.867,70.867
	v212.598c0,39.139,31.729,70.866,70.867,70.866C608.569,1093.157,640.297,1061.43,640.297,1022.291z"/>
<g id="LINE_13_">
	<path fill="#F58FB2" d="M1204.703,809.693v212.598c0,39.139,31.728,70.866,70.866,70.866c39.138,0,70.866-31.728,70.866-70.866
		V809.693c0-39.139-31.729-70.867-70.866-70.867C1236.431,738.827,1204.703,770.555,1204.703,809.693z"/>
</g>
<g id="LWPOLYLINE_4_">
	<g id="XMLID_1_">
		<g>
			<path fill="#F58FB2" d="M1137.36,406.62h-0.011C1160.77,198.37,1295.2,44.29,1453.44,44.34
				c176.47,0.06,319.5,190.47,319.449,425.3v708.56c0,156.55-126.909,283.46-283.46,283.46H355.57
				c-156.55,0-283.46-126.91-283.46-283.46V469.64C72.07,259.07,187.86,80.17,344.36,49.02
				c174.529-34.75,337.18,125.36,363.29,357.6l-0.011-0.03c4.03,35.85,34.351,62.95,70.42,62.95H922.5h144.44
				C1103,469.54,1133.31,442.46,1137.36,406.62z M1631.16,1178.2V462.45c-2.45-156.51-84.09-280.2-182.33-276.29
				c-84.94,3.38-156.53,101.96-170.92,235.36l0.01-0.03c-11.66,107.92-102.75,189.74-211.29,189.78h-0.08H922.5H778.37
				c-108.54-0.04-199.63-81.86-211.29-189.78l0.01,0.03C550.44,267.23,458.43,163.65,361.58,190.17
				c-83.74,22.92-145.62,136.96-147.74,272.28v715.75c0,78.27,63.45,141.729,141.73,141.729H1489.43
				C1567.71,1319.93,1631.16,1256.47,1631.16,1178.2z"/>
		</g>
		<g>
		</g>
	</g>
</g>
</svg>
